<?xml version="1.0" encoding="utf-8"?>
<svg viewBox="198.023 108.298 109.216 92.271" width="109.216" height="92.271" xmlns="http://www.w3.org/2000/svg">
  <path d="M 211.6151580810547 144.09300231933594 Q 212.1278533935547 144.09300231933594 212.1278533935547 144.63499450683594 Q 212.1278533935547 145.04515075683594 211.6737518310547 145.38206481933594 Q 210.9852752685547 145.85081481933594 210.2821502685547 146.37815856933594 Q 207.7333221435547 148.28245544433594 205.5946502685547 148.28245544433594 Q 204.3934783935547 148.28245544433594 203.3094940185547 147.66722106933594 Q 201.0096893310547 146.37815856933594 200.0135955810547 143.02366638183594 Q 199.5155487060547 141.33909606933594 199.5155487060547 139.81565856933594 Q 199.5155487060547 137.31077575683594 200.3138885498047 133.84642028808594 Q 201.1122283935547 130.38206481933594 202.6063690185547 126.85911560058594 Q 204.1005096435547 123.33616638183594 206.1805877685547 120.97776794433594 Q 208.2606658935547 118.61936950683594 210.6044158935547 118.61936950683594 Q 212.9481658935547 118.61936950683594 214.5448455810547 120.57493591308594 Q 216.1415252685547 122.53050231933594 216.1415252685547 124.56663513183594 Q 216.0975799560547 124.87425231933594 215.8339080810547 125.13792419433594 Q 215.5702362060547 125.40159606933594 215.3065643310547 125.40159606933594 Q 215.0428924560547 125.40159606933594 214.9110565185547 125.22581481933594 Q 214.7206268310547 124.96214294433594 214.6473846435547 124.25901794433594 Q 214.4130096435547 122.39866638183594 213.3143768310547 121.23411560058594 Q 212.2157440185547 120.06956481933594 210.5751190185547 120.06956481933594 Q 208.9344940185547 120.06956481933594 207.0741424560547 122.28147888183594 Q 204.5985565185547 125.21116638183594 202.8260955810547 130.57981872558594 Q 201.0536346435547 135.94847106933594 201.0536346435547 139.06126403808594 Q 201.0536346435547 142.17405700683594 202.1083221435547 144.26878356933594 Q 203.3973846435547 146.81761169433594 205.8290252685547 146.81761169433594 Q 207.6161346435547 146.81761169433594 209.9305877685547 145.14768981933594 Q 210.5751190185547 144.67893981933594 210.9706268310547 144.38597106933594 Q 211.3661346435547 144.09300231933594 211.6151580810547 144.09300231933594 Z M 222.46214294433594 132.69651794433594 Q 225.23069763183594 132.69651794433594 225.23069763183594 136.88597106933594 Q 225.23069763183594 140.15257263183594 223.42893981933594 143.90257263183594 Q 222.21311950683594 146.42210388183594 220.49925231933594 147.53538513183594 Q 219.62034606933594 148.10667419433594 218.68284606933594 148.10667419433594 Q 217.02757263183594 148.10667419433594 216.30979919433594 146.78831481933594 Q 215.59202575683594 145.46995544433594 215.59202575683594 143.94651794433594 Q 215.59202575683594 141.22190856933594 216.50755310058594 138.65843200683594 Q 217.42308044433594 136.09495544433594 218.99778747558594 134.39573669433594 Q 220.57249450683594 132.69651794433594 222.46214294433594 132.69651794433594 Z M 218.53636169433594 137.54515075683594 Q 216.95433044433594 140.70921325683594 216.95433044433594 143.72679138183594 Q 216.95433044433594 145.82151794433594 218.11155700683594 146.53929138183594 Q 218.46311950683594 146.75901794433594 218.91722106933594 146.75901794433594 Q 219.85472106933594 146.75901794433594 221.01194763183594 145.13304138183594 Q 222.16917419433594 143.50706481933594 222.96018981933594 141.12669372558594 Q 223.75120544433594 138.74632263183594 223.75120544433594 137.03977966308594 Q 223.75120544433594 135.33323669433594 223.55345153808594 134.87913513183594 Q 223.35569763183594 134.42503356933594 223.09934997558594 134.24925231933594 Q 222.84300231933594 134.07347106933594 222.24974060058594 134.07347106933594 Q 221.65647888183594 134.07347106933594 220.95335388183594 134.54222106933594 Q 219.59104919433594 135.42112731933594 218.53636169433594 137.54515075683594 Z M 227.32569885253906 147.84300231933594 Q 227.56007385253906 147.13987731933594 227.74317932128906 146.12181091308594 Q 227.92628479003906 145.10374450683594 228.21925354003906 144.23948669433594 Q 229.46437072753906 139.27366638183594 230.27003479003906 133.70726013183594 Q 230.31398010253906 133.44358825683594 230.33595275878906 133.20921325683594 Q 230.35792541503906 132.97483825683594 230.76808166503906 132.50608825683594 Q 231.07569885253906 132.38890075683594 231.22218322753906 132.38890075683594 Q 231.63233947753906 132.38890075683594 231.76417541503906 132.90159606933594 L 231.76417541503906 133.13597106933594 Q 231.70558166503906 135.27464294433594 231.10499572753906 137.79417419433594 L 230.35792541503906 140.94358825683594 Q 230.68019104003906 140.26976013183594 231.06105041503906 139.39085388183594 Q 232.67237854003906 135.67015075683594 234.06398010253906 134.12474060058594 Q 235.45558166503906 132.57933044433594 237.08155822753906 132.57933044433594 Q 237.97511291503906 132.57933044433594 238.54640197753906 133.30442810058594 Q 239.11769104003906 134.02952575683594 239.11769104003906 134.99632263183594 Q 239.11769104003906 135.14280700683594 239.10304260253906 135.25267028808594 Q 239.08839416503906 135.36253356933594 239.08839416503906 135.47972106933594 Q 240.71437072753906 133.50218200683594 242.47218322753906 132.78440856933594 Q 243.01417541503906 132.55003356933594 243.56349182128906 132.55003356933594 Q 244.11280822753906 132.55003356933594 244.61085510253906 133.07005310058594 Q 245.10890197753906 133.59007263183594 245.10890197753906 134.46897888183594 Q 245.10890197753906 135.34788513183594 244.91847229003906 136.35862731933594 Q 244.72804260253906 137.36936950683594 244.44239807128906 138.39476013183594 Q 244.15675354003906 139.42015075683594 243.79786682128906 140.46751403808594 Q 243.43898010253906 141.51487731933594 242.86769104003906 143.37522888183594 Q 242.29640197753906 145.23558044433594 242.19386291503906 146.22434997558594 Q 242.09132385253906 147.21311950683594 242.02540588378906 147.40354919433594 Q 241.95948791503906 147.59397888183594 241.76173400878906 147.85032653808594 Q 241.56398010253906 148.10667419433594 241.21241760253906 148.10667419433594 Q 240.52394104003906 148.10667419433594 240.52394104003906 146.64183044433594 Q 240.52394104003906 145.71897888183594 240.86085510253906 144.64964294433594 Q 241.19776916503906 143.58030700683594 241.41017150878906 142.84788513183594 Q 241.62257385253906 142.11546325683594 241.98878479003906 141.09007263183594 Q 242.35499572753906 140.06468200683594 242.89698791503906 138.39476013183594 Q 243.43898010253906 136.72483825683594 243.61476135253906 134.82054138183594 Q 243.61476135253906 134.20530700683594 243.46095275878906 134.09544372558594 Q 243.30714416503906 133.98558044433594 242.91163635253906 133.98558044433594 Q 242.51612854003906 133.98558044433594 241.71778869628906 134.49827575683594 Q 240.91944885253906 135.01097106933594 240.09913635253906 135.94847106933594 Q 238.26808166503906 138.10179138183594 237.34523010253906 141.23655700683594 Q 237.08155822753906 142.17405700683594 236.84718322753906 142.84788513183594 Q 236.61280822753906 143.52171325683594 236.22462463378906 144.69358825683594 Q 235.83644104003906 145.86546325683594 235.60939025878906 146.75169372558594 Q 235.38233947753906 147.63792419433594 235.21388244628906 147.87229919433594 Q 235.04542541503906 148.10667419433594 234.66456604003906 148.10667419433594 Q 233.97608947753906 148.10667419433594 233.91749572753906 147.35960388183594 Q 234.26905822753906 144.89866638183594 234.97218322753906 143.00901794433594 Q 235.67530822753906 141.11936950683594 236.11476135253906 140.00608825683594 Q 236.55421447753906 138.89280700683594 236.96437072753906 137.49388122558594 Q 237.37452697753906 136.09495544433594 237.37452697753906 135.08421325683594 Q 237.37452697753906 134.07347106933594 236.74464416503906 134.07347106933594 Q 235.01612854003906 134.07347106933594 232.20362854003906 139.75706481933594 Q 230.69483947753906 142.78929138183594 230.37257385253906 143.75608825683594 Q 230.05030822753906 144.72288513183594 229.87452697753906 145.23558044433594 Q 228.90773010253906 148.26780700683594 228.04347229003906 148.26780700683594 Q 227.75050354003906 148.26780700683594 227.53810119628906 148.14329528808594 Q 227.32569885253906 148.01878356933594 227.32569885253906 147.84300231933594 Z M 252.3617706298828 127.68675231933594 Q 253.2260284423828 127.68675231933594 253.2260284423828 128.55101013183594 Q 253.2260284423828 129.81077575683594 252.3471221923828 129.97190856933594 Q 252.0980987548828 130.01585388183594 251.8051300048828 130.01585388183594 Q 251.5121612548828 130.01585388183594 251.2191925048828 129.72288513183594 Q 250.9262237548828 129.42991638183594 250.9262237548828 128.96849060058594 Q 250.9262237548828 128.50706481933594 251.3803253173828 128.09690856933594 Q 251.8344268798828 127.68675231933594 252.3617706298828 127.68675231933594 Z M 250.2963409423828 134.52757263183594 L 250.2963409423828 134.23460388183594 Q 250.2963409423828 134.02952575683594 250.0766143798828 133.23851013183594 Q 250.0766143798828 132.87229919433594 250.3256378173828 132.57200622558594 Q 250.5746612548828 132.27171325683594 250.9335479736328 132.27171325683594 Q 251.2924346923828 132.27171325683594 251.5268096923828 132.72581481933594 Q 251.7611846923828 133.17991638183594 251.7611846923828 133.72190856933594 Q 251.7611846923828 134.26390075683594 250.3842315673828 140.19651794433594 Q 249.0072784423828 146.12913513183594 249.0072784423828 146.44407653808594 Q 249.0072784423828 146.75901794433594 249.3002471923828 146.75901794433594 Q 249.4906768798828 146.75901794433594 249.8422393798828 146.38548278808594 Q 250.1938018798828 146.01194763183594 250.4428253173828 146.01194763183594 Q 250.9262237548828 146.01194763183594 250.9262237548828 146.61985778808594 Q 250.9262237548828 147.22776794433594 250.0180206298828 147.68186950683594 Q 249.1098175048828 148.13597106933594 248.6996612548828 148.13597106933594 Q 247.6742706298828 148.13597106933594 247.6742706298828 146.49534606933594 Q 247.6742706298828 146.15843200683594 247.8134307861328 145.74095153808594 Q 247.9525909423828 145.32347106933594 248.1063995361328 144.58372497558594 Q 248.2602081298828 143.84397888183594 248.5458526611328 142.56956481933594 Q 248.8314971923828 141.29515075683594 249.1317901611328 139.93284606933594 Q 249.4320831298828 138.57054138183594 249.8642120361328 136.62962341308594 Q 250.2963409423828 134.68870544433594 250.2963409423828 134.52757263183594 Z M 263.40162658691406 135.97776794433594 Q 263.40162658691406 134.52757263183594 262.61061096191406 134.52757263183594 Q 261.55592346191406 134.52757263183594 258.58229064941406 140.57737731933594 Q 257.23463439941406 143.31663513183594 256.69996643066406 144.71556091308594 Q 256.16529846191406 146.11448669433594 255.90162658691406 146.68577575683594 Q 255.63795471191406 147.25706481933594 255.38160705566406 147.55003356933594 Q 255.12525939941406 147.84300231933594 254.81031799316406 147.84300231933594 Q 254.49537658691406 147.84300231933594 254.43678283691406 147.68919372558594 Q 254.37818908691406 147.53538513183594 254.37818908691406 147.13255310058594 Q 254.37818908691406 146.72972106933594 255.55738830566406 140.21849060058594 Q 256.73658752441406 133.70726013183594 256.91969299316406 133.37034606933594 Q 257.10279846191406 133.03343200683594 257.24928283691406 132.93821716308594 Q 257.39576721191406 132.84300231933594 257.77662658691406 132.84300231933594 Q 258.15748596191406 132.84300231933594 258.36988830566406 133.13597106933594 Q 258.58229064941406 133.42893981933594 258.58229064941406 133.65599060058594 Q 258.58229064941406 133.88304138183594 258.52369689941406 134.10276794433594 Q 258.42115783691406 134.49827575683594 258.21607971191406 135.08421325683594 Q 257.51295471191406 137.09104919433594 256.86842346191406 140.76780700683594 L 256.56080627441406 142.54026794433594 Q 256.89772033691406 141.83714294433594 257.32252502441406 140.84837341308594 Q 257.74732971191406 139.85960388183594 258.58229064941406 138.01390075683594 Q 259.41725158691406 136.16819763183594 260.44264221191406 134.71800231933594 Q 261.76100158691406 132.81370544433594 262.90357971191406 132.81370544433594 Q 264.91041564941406 132.81370544433594 264.91041564941406 136.05101013183594 Q 264.91041564941406 137.26683044433594 264.56617736816406 139.08323669433594 Q 264.22193908691406 140.89964294433594 263.80445861816406 143.05296325683594 Q 263.38697814941406 145.20628356933594 263.34303283691406 146.61253356933594 L 263.16725158691406 147.41819763183594 Q 263.16725158691406 147.74046325683594 263.07203674316406 147.87962341308594 Q 262.97682189941406 148.01878356933594 262.50074768066406 148.01878356933594 Q 262.02467346191406 148.01878356933594 261.81227111816406 147.84300231933594 Q 261.59986877441406 147.66722106933594 261.67311096191406 147.21311950683594 L 263.13795471191406 138.45335388183594 Q 263.40162658691406 136.82737731933594 263.40162658691406 135.97776794433594 Z M 277.0143737792969 132.96018981933594 Q 277.4977722167969 132.96018981933594 277.4977722167969 133.45091247558594 Q 277.4977722167969 133.94163513183594 277.3219909667969 134.41038513183594 Q 277.1462097167969 134.87913513183594 276.9484558105469 135.61888122558594 Q 276.7507019042969 136.35862731933594 276.3844909667969 137.88206481933594 Q 276.0182800292969 139.40550231933594 275.6667175292969 140.96556091308594 Q 275.3151550292969 142.52561950683594 274.9855651855469 144.07835388183594 Q 274.6559753417969 145.63108825683594 274.3337097167969 147.06663513183594 Q 274.8903503417969 146.68577575683594 275.4396667480469 146.18772888183594 Q 275.9889831542969 145.68968200683594 276.3625183105469 145.38938903808594 Q 276.7360534667969 145.08909606933594 276.9997253417969 145.08909606933594 Q 277.5563659667969 145.08909606933594 277.5563659667969 145.58714294433594 Q 277.5563659667969 145.98265075683594 277.3073425292969 146.18772888183594 Q 275.4469909667969 147.60862731933594 274.1579284667969 148.53147888183594 L 273.2936706542969 152.94065856933594 Q 272.4147644042969 157.40843200683594 271.0524597167969 158.94651794433594 Q 269.9684753417969 160.14768981933594 268.5402526855469 160.14768981933594 Q 267.1120300292969 160.14768981933594 266.1379089355469 159.17356872558594 Q 265.1637878417969 158.19944763183594 265.1637878417969 156.57347106933594 Q 265.1637878417969 154.22972106933594 267.5807800292969 152.12034606933594 Q 268.5622253417969 151.27073669433594 270.2248229980469 150.05491638183594 Q 271.8874206542969 148.83909606933594 272.8395690917969 148.04808044433594 Q 272.9714050292969 147.38890075683594 273.1545104980469 146.60520935058594 Q 273.3376159667969 145.82151794433594 273.4841003417969 145.17698669433594 Q 273.6305847167969 144.53245544433594 273.7770690917969 143.90257263183594 Q 273.9235534667969 143.27268981933594 274.0480651855469 142.70140075683594 Q 274.1725769042969 142.13011169433594 274.2751159667969 141.71995544433594 Q 273.4694519042969 144.31272888183594 272.6051940917969 145.64573669433594 Q 271.0085144042969 148.07737731933594 269.9025573730469 148.07737731933594 Q 268.7966003417969 148.07737731933594 268.1154479980469 147.24241638183594 Q 267.4342956542969 146.40745544433594 267.4342956542969 145.01585388183594 Q 267.4342956542969 142.45237731933594 268.4010925292969 139.58860778808594 Q 269.3678894042969 136.72483825683594 271.0671081542969 134.65208435058594 Q 272.7663269042969 132.57933044433594 274.7878112792969 132.57933044433594 Q 275.8132019042969 132.57933044433594 276.6188659667969 133.04808044433594 Q 276.7946472167969 132.96018981933594 277.0143737792969 132.96018981933594 Z M 269.7267761230469 139.81565856933594 Q 269.7267761230469 139.81565856933594 269.2616882324219 141.09739685058594 Q 268.7966003417969 142.37913513183594 268.7966003417969 144.51048278808594 Q 268.7966003417969 146.64183044433594 269.9098815917969 146.64183044433594 Q 270.8913269042969 146.64183044433594 272.1730651855469 144.75218200683594 Q 273.4548034667969 142.86253356933594 274.2238464355469 140.23313903808594 Q 274.9928894042969 137.60374450683594 275.3883972167969 136.14622497558594 Q 275.7839050292969 134.68870544433594 275.9303894042969 134.16136169433594 Q 275.4616394042969 133.76585388183594 274.7731628417969 133.76585388183594 Q 273.4401550292969 133.76585388183594 272.0485534667969 135.50901794433594 Q 270.6569519042969 137.25218200683594 269.7267761230469 139.81565856933594 Z M 272.6051940917969 149.67405700683594 Q 271.5065612792969 150.58226013183594 270.4299011230469 151.39524841308594 Q 269.3532409667969 152.20823669433594 268.5036315917969 153.01390075683594 Q 266.6286315917969 154.81565856933594 266.6286315917969 156.41966247558594 Q 266.6286315917969 158.02366638183594 267.3317565917969 158.44847106933594 Q 267.6393737792969 158.63890075683594 268.2692565917969 158.63890075683594 Q 269.5583190917969 158.63890075683594 270.4445495605469 157.23997497558594 Q 271.3307800292969 155.84104919433594 272.1510925292969 152.04710388183594 Z" transform="matrix(1, 0, 0, 1, 0, 0)" style="fill: rgb(51, 51, 51); white-space: pre;"/>
  <path d="M 255.5869598388672 152.39210510253906 Q 259.0879364013672 152.39210510253906 260.2158660888672 156.17140197753906 Q 260.3330535888672 156.36183166503906 260.3330535888672 156.63282775878906 Q 260.3330535888672 156.90382385253906 260.0767059326172 157.13819885253906 Q 259.8203582763672 157.37257385253906 259.5566864013672 157.37257385253906 Q 259.1025848388672 157.37257385253906 259.0146942138672 156.81593322753906 Q 258.8096160888672 155.49757385253906 257.9014129638672 154.57472229003906 Q 256.9932098388672 153.65187072753906 255.5869598388672 153.65187072753906 Q 254.1807098388672 153.65187072753906 253.4629364013672 154.63331604003906 Q 252.7451629638672 155.61476135253906 252.7451629638672 156.94776916503906 Q 252.7451629638672 158.28077697753906 253.1040496826172 159.68702697753906 Q 253.4629364013672 161.09327697753906 254.0049285888672 162.49952697753906 Q 254.5469207763672 163.90577697753906 255.1694793701172 165.31202697753906 Q 255.7920379638672 166.71827697753906 256.3340301513672 168.13917541503906 Q 257.5937957763672 171.43507385253906 257.5937957763672 174.06446838378906 Q 257.5937957763672 176.69386291503906 256.1436004638672 178.87648010253906 Q 254.2832489013672 181.73292541503906 250.2842254638672 181.73292541503906 Q 247.2227020263672 181.73292541503906 244.9888153076172 180.20948791503906 Q 242.7549285888672 178.68605041503906 242.7549285888672 175.84425354003906 Q 242.7549285888672 173.00245666503906 244.4541473388672 170.93702697753906 Q 245.0693817138672 170.18995666503906 245.9629364013672 169.39894104003906 Q 246.2559051513672 169.14991760253906 246.5195770263672 169.14991760253906 Q 247.1055145263672 169.14991760253906 247.1055145263672 169.63331604003906 Q 247.1055145263672 169.88233947753906 246.9736785888672 170.08741760253906 Q 245.4795379638672 171.46437072753906 244.9961395263672 172.37257385253906 Q 244.1904754638672 173.95460510253906 244.1904754638672 175.41944885253906 Q 244.1904754638672 176.88429260253906 244.7031707763672 177.76319885253906 Q 245.2158660888672 178.64210510253906 246.0654754638672 179.22804260253906 Q 247.7353973388672 180.39991760253906 250.4087371826172 180.39991760253906 Q 253.0820770263672 180.39991760253906 254.7373504638672 178.29054260253906 Q 256.1582489013672 176.48878479003906 256.1582489013672 173.88868713378906 Q 256.1582489013672 171.28858947753906 253.7266082763672 165.63429260253906 Q 251.2949676513672 159.97999572753906 251.2949676513672 157.77540588378906 Q 251.2949676513672 155.57081604003906 252.3496551513672 153.98146057128906 Q 253.4043426513672 152.39210510253906 255.5869598388672 152.39210510253906 Z M 267.5127258300781 166.24952697753906 Q 270.2812805175781 166.24952697753906 270.2812805175781 170.43898010253906 Q 270.2812805175781 173.70558166503906 268.4795227050781 177.45558166503906 Q 267.2637023925781 179.97511291503906 265.5498352050781 181.08839416503906 Q 264.6709289550781 181.65968322753906 263.7334289550781 181.65968322753906 Q 262.0781555175781 181.65968322753906 261.3603820800781 180.34132385253906 Q 260.6426086425781 179.02296447753906 260.6426086425781 177.49952697753906 Q 260.6426086425781 174.77491760253906 261.5581359863281 172.21144104003906 Q 262.4736633300781 169.64796447753906 264.0483703613281 167.94874572753906 Q 265.6230773925781 166.24952697753906 267.5127258300781 166.24952697753906 Z M 263.5869445800781 171.09815979003906 Q 262.0049133300781 174.26222229003906 262.0049133300781 177.27980041503906 Q 262.0049133300781 179.37452697753906 263.1621398925781 180.09230041503906 Q 263.5137023925781 180.31202697753906 263.9678039550781 180.31202697753906 Q 264.9053039550781 180.31202697753906 266.0625305175781 178.68605041503906 Q 267.2197570800781 177.06007385253906 268.0107727050781 174.67970275878906 Q 268.8017883300781 172.29933166503906 268.8017883300781 170.59278869628906 Q 268.8017883300781 168.88624572753906 268.6040344238281 168.43214416503906 Q 268.4062805175781 167.97804260253906 268.1499328613281 167.80226135253906 Q 267.8935852050781 167.62648010253906 267.3003234863281 167.62648010253906 Q 266.7070617675781 167.62648010253906 266.0039367675781 168.09523010253906 Q 264.6416320800781 168.97413635253906 263.5869445800781 171.09815979003906 Z M 278.93878173828125 166.24952697753906 Q 281.70733642578125 166.24952697753906 281.70733642578125 170.43898010253906 Q 281.70733642578125 173.70558166503906 279.90557861328125 177.45558166503906 Q 278.68975830078125 179.97511291503906 276.97589111328125 181.08839416503906 Q 276.09698486328125 181.65968322753906 275.15948486328125 181.65968322753906 Q 273.50421142578125 181.65968322753906 272.78643798828125 180.34132385253906 Q 272.06866455078125 179.02296447753906 272.06866455078125 177.49952697753906 Q 272.06866455078125 174.77491760253906 272.98419189453125 172.21144104003906 Q 273.89971923828125 169.64796447753906 275.47442626953125 167.94874572753906 Q 277.04913330078125 166.24952697753906 278.93878173828125 166.24952697753906 Z M 275.01300048828125 171.09815979003906 Q 273.43096923828125 174.26222229003906 273.43096923828125 177.27980041503906 Q 273.43096923828125 179.37452697753906 274.58819580078125 180.09230041503906 Q 274.93975830078125 180.31202697753906 275.39385986328125 180.31202697753906 Q 276.33135986328125 180.31202697753906 277.48858642578125 178.68605041503906 Q 278.64581298828125 177.06007385253906 279.43682861328125 174.67970275878906 Q 280.22784423828125 172.29933166503906 280.22784423828125 170.59278869628906 Q 280.22784423828125 168.88624572753906 280.03009033203125 168.43214416503906 Q 279.83233642578125 167.97804260253906 279.57598876953125 167.80226135253906 Q 279.31964111328125 167.62648010253906 278.72637939453125 167.62648010253906 Q 278.13311767578125 167.62648010253906 277.42999267578125 168.09523010253906 Q 276.06768798828125 168.97413635253906 275.01300048828125 171.09815979003906 Z M 292.8257751464844 169.53077697753906 Q 292.8257751464844 168.08058166503906 292.0347595214844 168.08058166503906 Q 290.9800720214844 168.08058166503906 288.0064392089844 174.13038635253906 Q 286.6587829589844 176.86964416503906 286.1241149902344 178.26856994628906 Q 285.5894470214844 179.66749572753906 285.3257751464844 180.23878479003906 Q 285.0621032714844 180.81007385253906 284.8057556152344 181.10304260253906 Q 284.5494079589844 181.39601135253906 284.2344665527344 181.39601135253906 Q 283.9195251464844 181.39601135253906 283.8609313964844 181.24220275878906 Q 283.8023376464844 181.08839416503906 283.8023376464844 180.68556213378906 Q 283.8023376464844 180.28273010253906 284.9815368652344 173.77149963378906 Q 286.1607360839844 167.26026916503906 286.3438415527344 166.92335510253906 Q 286.5269470214844 166.58644104003906 286.6734313964844 166.49122619628906 Q 286.8199157714844 166.39601135253906 287.2007751464844 166.39601135253906 Q 287.5816345214844 166.39601135253906 287.7940368652344 166.68898010253906 Q 288.0064392089844 166.98194885253906 288.0064392089844 167.20899963378906 Q 288.0064392089844 167.43605041503906 287.9478454589844 167.65577697753906 Q 287.8453063964844 168.05128479003906 287.6402282714844 168.63722229003906 Q 286.9371032714844 170.64405822753906 286.2925720214844 174.32081604003906 L 285.9849548339844 176.09327697753906 Q 286.3218688964844 175.39015197753906 286.7466735839844 174.40138244628906 Q 287.1714782714844 173.41261291503906 288.0064392089844 171.56690979003906 Q 288.8414001464844 169.72120666503906 289.8667907714844 168.27101135253906 Q 291.1851501464844 166.36671447753906 292.3277282714844 166.36671447753906 Q 294.3345642089844 166.36671447753906 294.3345642089844 169.60401916503906 Q 294.3345642089844 170.81983947753906 293.9903259277344 172.63624572753906 Q 293.6460876464844 174.45265197753906 293.2286071777344 176.60597229003906 Q 292.8111267089844 178.75929260253906 292.7671813964844 180.16554260253906 L 292.5914001464844 180.97120666503906 Q 292.5914001464844 181.29347229003906 292.4961853027344 181.43263244628906 Q 292.4009704589844 181.57179260253906 291.9248962402344 181.57179260253906 Q 291.4488220214844 181.57179260253906 291.2364196777344 181.39601135253906 Q 291.0240173339844 181.22023010253906 291.0972595214844 180.76612854003906 L 292.5621032714844 172.00636291503906 Q 292.8257751464844 170.38038635253906 292.8257751464844 169.53077697753906 Z M 295.7137145996094 181.76222229003906 Q 294.8348083496094 181.76222229003906 294.8348083496094 180.72218322753906 Q 294.8348083496094 180.20948791503906 295.2669372558594 179.79933166503906 Q 295.6990661621094 179.38917541503906 296.2044372558594 179.38917541503906 Q 296.7098083496094 179.38917541503906 297.1785583496094 179.74073791503906 Q 297.6912536621094 180.23878479003906 297.6912536621094 180.72218322753906 Q 297.6912536621094 181.20558166503906 297.3250427246094 181.54249572753906 Q 296.9588317871094 181.87940979003906 296.5340270996094 181.87940979003906 Q 296.1092224121094 181.87940979003906 295.8309020996094 181.76222229003906 Z M 299.4515686035156 181.76222229003906 Q 298.5726623535156 181.76222229003906 298.5726623535156 180.72218322753906 Q 298.5726623535156 180.20948791503906 299.0047912597656 179.79933166503906 Q 299.4369201660156 179.38917541503906 299.9422912597656 179.38917541503906 Q 300.4476623535156 179.38917541503906 300.9164123535156 179.74073791503906 Q 301.4291076660156 180.23878479003906 301.4291076660156 180.72218322753906 Q 301.4291076660156 181.20558166503906 301.0628967285156 181.54249572753906 Q 300.6966857910156 181.87940979003906 300.2718811035156 181.87940979003906 Q 299.8470764160156 181.87940979003906 299.5687561035156 181.76222229003906 Z M 303.201904296875 181.76222229003906 Q 302.322998046875 181.76222229003906 302.322998046875 180.72218322753906 Q 302.322998046875 180.20948791503906 302.755126953125 179.79933166503906 Q 303.187255859375 179.38917541503906 303.692626953125 179.38917541503906 Q 304.197998046875 179.38917541503906 304.666748046875 179.74073791503906 Q 305.179443359375 180.23878479003906 305.179443359375 180.72218322753906 Q 305.179443359375 181.20558166503906 304.813232421875 181.54249572753906 Q 304.447021484375 181.87940979003906 304.022216796875 181.87940979003906 Q 303.597412109375 181.87940979003906 303.319091796875 181.76222229003906 Z" transform="matrix(1, 0, 0, 1, 0, 0)" style="fill: rgb(51, 51, 51); white-space: pre;"/>
</svg>